<svg width="23" height="25" viewBox="0 0 23 25" fill="none" xmlns="http://www.w3.org/2000/svg">
<path d="M9.12708 17.6357V23.6442C9.12708 23.8715 9.03996 24.0895 8.88488 24.2503C8.7298 24.411 8.51947 24.5013 8.30016 24.5013H1.68477C1.46546 24.5013 1.25513 24.411 1.10005 24.2503C0.944972 24.0895 0.85785 23.8715 0.85785 23.6442V11.6443C0.857656 11.5317 0.878882 11.4201 0.920314 11.316C0.961745 11.2118 1.02257 11.1172 1.09931 11.0374L11.0224 0.751816C11.0992 0.671994 11.1905 0.608664 11.2909 0.565453C11.3914 0.522242 11.4991 0.5 11.6079 0.5C11.7166 0.5 11.8243 0.522242 11.9248 0.565453C12.0252 0.608664 12.1165 0.671994 12.1933 0.751816L22.1164 11.0374C22.1931 11.1172 22.254 11.2118 22.2954 11.316C22.3368 11.4201 22.358 11.5317 22.3579 11.6443V23.6442C22.3579 23.8715 22.2707 24.0895 22.1157 24.2503C21.9606 24.411 21.7502 24.5013 21.5309 24.5013H14.9155C14.6962 24.5013 14.4859 24.411 14.3308 24.2503C14.1757 24.0895 14.0886 23.8715 14.0886 23.6442V17.6443C14.0886 17.2157 13.6752 16.7871 13.2617 16.7871H9.95401C9.54054 16.7871 9.12708 17.2157 9.12708 17.6357Z" fill="black"/>
</svg>
